<svg width="82" height="82" viewBox="0 0 82 82" fill="none" xmlns="http://www.w3.org/2000/svg">
<circle cx="41" cy="41" r="35.5" stroke="#B5B8C2" stroke-width="11"/>
<path fill-rule="evenodd" clip-rule="evenodd" d="M41 65C54.2548 65 65 54.2548 65 41C65 27.7452 54.2548 17 41 17C27.7452 17 17 27.7452 17 41C17 54.2548 27.7452 65 41 65ZM34.8781 24.4046C35.7864 24.0743 36.255 23.0703 35.9247 22.1619C35.5944 21.2536 34.5903 20.7851 33.682 21.1154C28.0123 23.1771 23.1367 27.8779 22.0117 32.9404C21.802 33.8839 22.3969 34.8187 23.3404 35.0283C24.2839 35.238 25.2187 34.6431 25.4283 33.6996C26.2233 30.1221 29.9877 26.1829 34.8781 24.4046Z" fill="#566EC4"/>
<path d="M52.5 20C77 34.5 62.3 71.45 34 63.96C47.5 56.46 58.5 41 52.5 20Z" fill="#364C9A" fill-opacity="0.7"/>
</svg>
